<mxfile host="app.diagrams.net" agent="Mozilla/5.0 (Windows NT 10.0; Win64; x64; rv:136.0) Gecko/20100101 Firefox/136.0" version="26.1.1">
  <diagram name="Page-1" id="NVxWjuCZrykVWpo1Cx6Y">
    <mxGraphModel dx="996" dy="664" grid="1" gridSize="10" guides="1" tooltips="1" connect="1" arrows="1" fold="1" page="1" pageScale="1" pageWidth="850" pageHeight="1100" math="0" shadow="0">
      <root>
        <mxCell id="0" />
        <mxCell id="1" parent="0" />
        <mxCell id="HjteDV3kib1qW8Sf4oWf-6" style="edgeStyle=orthogonalEdgeStyle;rounded=0;orthogonalLoop=1;jettySize=auto;html=1;entryX=0;entryY=0.5;entryDx=0;entryDy=0;" edge="1" parent="1" source="HjteDV3kib1qW8Sf4oWf-1" target="HjteDV3kib1qW8Sf4oWf-5">
          <mxGeometry relative="1" as="geometry" />
        </mxCell>
        <mxCell id="HjteDV3kib1qW8Sf4oWf-11" style="edgeStyle=orthogonalEdgeStyle;rounded=0;orthogonalLoop=1;jettySize=auto;html=1;entryX=0;entryY=0.5;entryDx=0;entryDy=0;" edge="1" parent="1" source="HjteDV3kib1qW8Sf4oWf-1" target="HjteDV3kib1qW8Sf4oWf-10">
          <mxGeometry relative="1" as="geometry" />
        </mxCell>
        <mxCell id="HjteDV3kib1qW8Sf4oWf-13" style="edgeStyle=orthogonalEdgeStyle;rounded=0;orthogonalLoop=1;jettySize=auto;html=1;entryX=0;entryY=0.5;entryDx=0;entryDy=0;" edge="1" parent="1" source="HjteDV3kib1qW8Sf4oWf-1" target="HjteDV3kib1qW8Sf4oWf-12">
          <mxGeometry relative="1" as="geometry" />
        </mxCell>
        <mxCell id="HjteDV3kib1qW8Sf4oWf-15" style="edgeStyle=orthogonalEdgeStyle;rounded=0;orthogonalLoop=1;jettySize=auto;html=1;entryX=0;entryY=0.5;entryDx=0;entryDy=0;" edge="1" parent="1" source="HjteDV3kib1qW8Sf4oWf-1" target="HjteDV3kib1qW8Sf4oWf-14">
          <mxGeometry relative="1" as="geometry" />
        </mxCell>
        <mxCell id="HjteDV3kib1qW8Sf4oWf-17" style="edgeStyle=orthogonalEdgeStyle;rounded=0;orthogonalLoop=1;jettySize=auto;html=1;entryX=0;entryY=0.5;entryDx=0;entryDy=0;" edge="1" parent="1" source="HjteDV3kib1qW8Sf4oWf-1" target="HjteDV3kib1qW8Sf4oWf-16">
          <mxGeometry relative="1" as="geometry" />
        </mxCell>
        <mxCell id="HjteDV3kib1qW8Sf4oWf-19" style="edgeStyle=orthogonalEdgeStyle;rounded=0;orthogonalLoop=1;jettySize=auto;html=1;entryX=0;entryY=0.5;entryDx=0;entryDy=0;" edge="1" parent="1" source="HjteDV3kib1qW8Sf4oWf-1" target="HjteDV3kib1qW8Sf4oWf-18">
          <mxGeometry relative="1" as="geometry" />
        </mxCell>
        <mxCell id="HjteDV3kib1qW8Sf4oWf-1" value="Manager" style="shape=umlActor;verticalLabelPosition=bottom;verticalAlign=top;html=1;outlineConnect=0;" vertex="1" parent="1">
          <mxGeometry x="110" y="230" width="70" height="120" as="geometry" />
        </mxCell>
        <mxCell id="HjteDV3kib1qW8Sf4oWf-5" value="Add employee" style="ellipse;whiteSpace=wrap;html=1;" vertex="1" parent="1">
          <mxGeometry x="365" y="70" width="175" height="70" as="geometry" />
        </mxCell>
        <mxCell id="HjteDV3kib1qW8Sf4oWf-10" value="Add(&amp;amp;assign) task" style="ellipse;whiteSpace=wrap;html=1;" vertex="1" parent="1">
          <mxGeometry x="370" y="150" width="155" height="70" as="geometry" />
        </mxCell>
        <mxCell id="HjteDV3kib1qW8Sf4oWf-12" value="Show work hours" style="ellipse;whiteSpace=wrap;html=1;" vertex="1" parent="1">
          <mxGeometry x="370" y="230" width="150" height="80" as="geometry" />
        </mxCell>
        <mxCell id="HjteDV3kib1qW8Sf4oWf-14" value="Sort employees" style="ellipse;whiteSpace=wrap;html=1;" vertex="1" parent="1">
          <mxGeometry x="370" y="320" width="150" height="80" as="geometry" />
        </mxCell>
        <mxCell id="HjteDV3kib1qW8Sf4oWf-16" value="See employee&#39;s task status" style="ellipse;whiteSpace=wrap;html=1;" vertex="1" parent="1">
          <mxGeometry x="370" y="420" width="150" height="80" as="geometry" />
        </mxCell>
        <mxCell id="HjteDV3kib1qW8Sf4oWf-18" value="Change task status" style="ellipse;whiteSpace=wrap;html=1;" vertex="1" parent="1">
          <mxGeometry x="370" y="510" width="150" height="80" as="geometry" />
        </mxCell>
      </root>
    </mxGraphModel>
  </diagram>
</mxfile>
